<svg xmlns="http://www.w3.org/2000/svg" enable-background="new 0 0 512 512" viewBox="0 0 512 512" id="login">
  <g transform="translate(0 -952.362)">
    <path fill="#3eb6ff" d="M404.694,1284.96c-33.149,0-61.998,18.388-76.782,45.415H61.574L20,1367.532l47.652,45.415l31.339-24.772
					l24.945,24.772l24.945-24.772l31.339,24.772h147.693c14.784,27.027,43.633,45.415,76.782,45.415
					c48.217,0,87.306-38.818,87.306-86.701C492,1323.777,452.912,1284.96,404.694,1284.96z"></path>
    <ellipse cx="405.662" cy="1371.661" fill="#0795ff" rx="24.945" ry="24.772"></ellipse>
  </g>
  <g transform="translate(0 -952.362)">
    <path fill="#dfe8f4" d="M232.792,958.362l-7.053,38.583c-6.857,2.141-13.497,4.902-19.773,8.153l-32.608-22.277l-41.859,41.569
					l22.548,32.268c-3.288,6.25-6.048,12.805-8.21,19.636l-38.852,7.005v58.794l38.852,7.005c2.168,6.848,5.027,13.372,8.326,19.636
					l-22.664,32.268l41.859,41.569l32.493-22.278c6.303,3.272,12.999,6.003,19.889,8.153l7.053,38.583h59.204l7.053-38.583
					c6.879-2.147,13.479-4.888,19.773-8.153l32.492,22.278l41.859-41.569l-22.548-32.267c3.274-6.223,6.051-12.723,8.21-19.521
					l38.968-7.12V1083.3l-38.968-7.005c-2.148-6.786-4.836-13.308-8.095-19.521l22.433-32.382l-41.859-41.569l-32.492,22.277
					c-6.294-3.264-12.894-6.006-19.773-8.153l-7.053-38.583L232.792,958.362L232.792,958.362z"></path>
    <path fill="#ffbb1b" d="M301.897,1079.371h-39.503h-37.446h-1.312c-6.872,0-12.447,5.551-12.432,12.376v54.255
						c0,6.824,5.59,12.361,12.462,12.361l38.728-0.022l38.758-0.022c6.872,0,12.447-5.536,12.432-12.361v-54.27
						C313.584,1085.129,308.411,1079.77,301.897,1079.371z"></path>
    <path fill="#ffde93" d="M224.948,1079.371h-1.312c-6.872,0-12.447,5.551-12.432,12.376v54.255c0,6.824,5.59,12.361,12.462,12.361
						l38.728-0.022v-78.97H224.948z"></path>
    <path fill="#4d28a8" d="M292.602,1081.257c-3.406,0-6.168-2.753-6.168-6.148c0-13.151-10.785-23.851-24.04-23.851
							c-13.256,0-24.04,10.699-24.04,23.851c0,3.395-2.762,6.148-6.168,6.148s-6.168-2.753-6.168-6.148
							c0-19.93,16.318-36.146,36.375-36.146s36.375,16.215,36.375,36.146C298.769,1078.504,296.008,1081.257,292.602,1081.257z"></path>
    <path fill="#623add" d="M262.394,1051.259c-13.256,0-24.04,10.699-24.04,23.851c0,3.395-2.762,6.148-6.168,6.148
							s-6.168-2.753-6.168-6.148c0-19.93,16.318-36.146,36.375-36.146"></path>
    <path fill="#4d28a8" d="M262.394,1144.656c-3.313,0-6-2.687-6-6v-26.488c0-3.313,2.687-6,6-6s6,2.687,6,6v26.488
							C268.394,1141.97,265.708,1144.656,262.394,1144.656z"></path>
  </g>
</svg>
