<svg xmlns="http://www.w3.org/2000/svg" viewBox="0 0 512 512" id="add-friend">
  <path fill="#282828" d="M495.94,193.92c-2.3-25.53-14-49.17-32.94-66.58-7.9-7.25-16.79-13.14-26.32-17.57,8.44-9.94,13.55-22.79,13.55-36.82,0-31.4-25.55-56.95-56.95-56.95s-56.95,25.55-56.95,56.95c0,14.03,5.11,26.88,13.55,36.82-9.53,4.43-18.42,10.31-26.32,17.57-5.95,5.47-11.18,11.55-15.63,18.11-10.16-45.26-44.74-73.34-93.09-73.34-56.46,0-94.19,38.28-96.11,97.52-1.24,38.31,13.8,79.67,41.61,104.67v8.77c0,5.78-1.65,12.06-13.07,18.91-3.81,1.2-8,2.5-12.47,3.89-28.59,8.88-64.18,19.92-83.12,31.03-34.18,20.04-35.58,45.42-35.68,106.01v38.09c0,3.98,1.58,7.79,4.39,10.61,2.82,2.81,6.63,4.39,10.61,4.39H398.69c3.98,0,7.79-1.58,10.6-4.39s4.4-6.63,4.4-10.61l-.01-38.12c-.09-60.56-1.5-85.94-35.67-105.98-18.95-11.1-54.53-22.15-83.12-31.03-4.47-1.38-8.66-2.68-12.47-3.89-11.42-6.85-13.08-13.13-13.08-18.91v-8.77c18.05-16.22,30.72-39.34,37.05-64.03h174.61c4.21,0,8.23-1.77,11.07-4.88,2.84-3.11,4.25-7.27,3.87-11.47Zm-212.79,139.72c.94,.29,1.88,.58,2.84,.88,25.7,7.98,60.88,18.9,76.85,28.26,17.6,10.32,20.74,17.19,20.84,80.13l.01,23.09H46v-23.07c.1-62.96,3.25-69.83,20.85-80.15,15.97-9.36,51.15-20.28,76.85-28.26,.96-.3,1.9-.59,2.84-.88,19.96,23.48,36.79,36.84,53.3,42.05v31.86c0,8.28,6.72,15,15,15s15-6.72,15-15v-31.86c16.51-5.21,33.35-18.57,53.31-42.05Zm-109.22-14.2c8.51-7.73,13.72-16.85,15.6-27.28,7.59,2.81,15.71,4.59,24.34,5.15,.33,.02,.65,.03,.97,.03,.33,0,.65-.01,.97-.03,8.63-.56,16.76-2.34,24.34-5.15,1.89,10.43,7.09,19.55,15.61,27.28-16.8,18.84-29.99,28.07-40.92,28.78-10.93-.71-24.12-9.94-40.91-28.78Zm88.99-83.39c-8.76,13.24-24.18,29.3-48.08,31.25-23.89-1.95-39.31-18.01-48.07-31.25-12.22-18.45-18.8-42.31-18.05-65.45,.52-16.06,6.82-68.49,66.12-68.49s65.61,52.43,66.13,68.49c.75,23.14-5.83,47-18.05,65.45ZM393.28,46c14.86,0,26.95,12.09,26.95,26.95s-12.09,26.95-26.95,26.95-26.95-12.09-26.95-26.95,12.09-26.95,26.95-26.95Zm-69.43,134.27c9.6-29.45,37.06-50.08,69.43-50.08s59.83,20.63,69.44,50.08h-138.87Zm102.79,71.84h-18.36v-18.36c0-8.28-6.72-15-15-15s-15,6.72-15,15v18.36h-18.36c-8.28,0-15,6.72-15,15s6.72,15,15,15h18.36v18.36c0,8.28,6.72,15,15,15s15-6.72,15-15v-18.36h18.36c8.28,0,15-6.72,15-15s-6.72-15-15-15Z"></path>
  <path fill="#ffc72e" d="M462.72 180.27h-138.87c9.6-29.45 37.06-50.08 69.43-50.08s59.83 20.63 69.44 50.08zM383.69 466H46v-23.07c.1-62.96 3.25-69.83 20.85-80.15 15.97-9.36 51.15-20.28 76.85-28.26.96-.3 1.9-.59 2.84-.88 19.96 23.48 36.79 36.84 53.3 42.05v31.86c0 8.28 6.72 15 15 15s15-6.72 15-15v-31.86c16.51-5.21 33.35-18.57 53.31-42.05.94.29 1.88.58 2.84.88 25.7 7.98 60.88 18.9 76.85 28.26 17.6 10.32 20.74 17.19 20.84 80.13l.01 23.09z"></path>
</svg>
